<svg width="20" height="20" viewBox="0 0 20 20" fill="none" xmlns="http://www.w3.org/2000/svg">
<g id="delete">
<mask id="mask0_103_182" style="mask-type:alpha" maskUnits="userSpaceOnUse" x="0" y="0" width="20" height="20">
<rect id="Bounding box" width="20" height="20" fill="#D9D9D9"/>
</mask>
<g mask="url(#mask0_103_182)">
<path id="delete_2" d="M5.83334 17.5C5.37501 17.5 4.98265 17.3368 4.65626 17.0104C4.32987 16.684 4.16668 16.2917 4.16668 15.8333V5H3.33334V3.33333H7.50001V2.5H12.5V3.33333H16.6667V5H15.8333V15.8333C15.8333 16.2917 15.6701 16.684 15.3438 17.0104C15.0174 17.3368 14.625 17.5 14.1667 17.5H5.83334ZM14.1667 5H5.83334V15.8333H14.1667V5ZM7.50001 14.1667H9.16668V6.66667H7.50001V14.1667ZM10.8333 14.1667H12.5V6.66667H10.8333V14.1667Z" fill="#97A3AF"/>
</g>
</g>
</svg>
