<svg width="20" height="20" viewBox="0 0 20 20" fill="none" xmlns="http://www.w3.org/2000/svg">
<mask id="mask0_103_178" style="mask-type:alpha" maskUnits="userSpaceOnUse" x="0" y="0" width="20" height="20">
<rect width="20" height="20" fill="#D9D9D9"/>
</mask>
<g mask="url(#mask0_103_178)">
<path d="M1.66667 20V16.6667H18.3333V20H1.66667ZM3.33334 15V11.875L10.875 4.33333L14 7.45833L6.45834 15H3.33334ZM5.00001 13.3333H5.75001L11.6667 7.45833L10.875 6.66667L5.00001 12.5833V13.3333ZM14.9375 6.54167L11.8125 3.41667L13.3125 1.91667C13.4653 1.75 13.6597 1.67014 13.8958 1.67708C14.1319 1.68403 14.3264 1.76389 14.4792 1.91667L16.4375 3.875C16.5903 4.02778 16.6667 4.21875 16.6667 4.44792C16.6667 4.67708 16.5903 4.875 16.4375 5.04167L14.9375 6.54167Z" fill="#97A3AF"/>
</g>
</svg>
